<svg xmlns="http://www.w3.org/2000/svg" version="1.1" xmlns:xlink="http://www.w3.org/1999/xlink" xmlns:svgjs="http://svgjs.dev/svgjs" width="1000" height="1000" viewBox="0 0 1000 1000"><rect width="1000" height="1000" fill="#000000"></rect><g transform="matrix(0.7,0,0,0.7,149.57575822047045,414.8165802200855)"><svg viewBox="0 0 396 97" data-background-color="#ffffff" preserveAspectRatio="xMidYMid meet" height="244" width="1000" xmlns="http://www.w3.org/2000/svg" xmlns:xlink="http://www.w3.org/1999/xlink"><g id="tight-bounds" transform="matrix(1,0,0,1,0.23999963527671753,-0.12299930531784753)"><svg viewBox="0 0 395.52 97.24599184125397" height="97.24599184125397" width="395.52"><g><svg viewBox="0 0 597.9949059073061 147.02823559105312" height="97.24599184125397" width="395.52"><g transform="matrix(1,0,0,1,202.47490590730618,20.320110707591283)"><svg viewBox="0 0 395.52 106.38801417587055" height="106.38801417587055" width="395.52"><g id="textblocktransform"><svg viewBox="0 0 395.52 106.38801417587055" height="106.38801417587055" width="395.52" id="textblock"><g><svg viewBox="0 0 395.52 66.67285518501598" height="66.67285518501598" width="395.52"><g transform="matrix(1,0,0,1,0,0)"><svg width="395.52" viewBox="1 -36.099998474121094 218.88999938964844 36.89999771118164" height="66.67285518501598" data-palette-color="#6936f5"><path d="M5.8-11.55L5.8-17.75 5.95-26.4Q5.95-27.75 5.85-30.95L5.85-30.95Q5.8-32.4 4.6-33.2 3.4-34 1.8-34.05L1.8-34.05Q1-34.05 1-34.95L1-34.95Q1-35.65 2.4-35.65L2.4-35.65 3.75-35.55 15.95-35.3 25.95-35.5Q26.9-35.5 26.9-34.35L26.9-34.35Q26.9-34.05 26.6-32.38 26.3-30.7 26.3-29.75L26.3-29.75Q26.3-28.15 25.53-28.15 24.75-28.15 24.75-29.35 24.75-30.55 23.9-31.65 23.05-32.75 21.8-32.8L21.8-32.8Q17.3-33.15 14.9-33.15L14.9-33.15 13.6-33.15Q11-33.15 10.6-32.8L10.6-32.8Q9.85-32.15 9.85-21.75L9.85-21.75Q9.85-19.25 10.8-19.2L10.8-19.2 15.7-19.2Q18.7-19.2 19.7-19.4L19.7-19.4Q22.3-19.9 22.65-22L22.65-22Q22.8-22.85 23.3-22.85 23.8-22.85 23.9-22.7 24-22.55 24-22.05L24-22.05 23.6-16.8 23.75-13.75Q23.75-12.5 23.4-12.5L23.4-12.5Q22.65-12.5 22.3-13.7L22.3-13.7Q21.6-15.8 21.05-16.15L21.05-16.15Q20-16.85 17.4-16.85L17.4-16.85 13.8-16.85 12.2-16.9 11.85-16.9Q9.8-16.9 9.8-15.95L9.8-15.95 9.7-8.75 9.7-6.75Q9.7-3.15 10.93-2.78 12.15-2.4 13.05-2.4L13.05-2.4Q20.55-2.4 23.9-3.6L23.9-3.6Q26.85-4.7 27.5-5.9L27.5-5.9Q28.1-7.15 28.6-7.15L28.6-7.15Q29.2-7.15 29.2-6.3L29.2-6.3Q29.2-4.15 27.05-1.95 24.9 0.25 23.3 0.25L23.3 0.25Q19.7 0.25 15.18 0 10.65-0.25 9.55-0.25L9.55-0.25 2.75 0.2Q1.7 0.2 1.7-0.3L1.7-0.3 1.7-0.9Q1.7-1.2 2.2-1.3L2.2-1.3Q2.75-1.35 3.9-1.9 5.05-2.45 5.43-4.2 5.8-5.95 5.8-11.55L5.8-11.55ZM32.4-7.25L32.4-7.25 32.4-7.8Q32.4-9.25 32.87-9.65 33.35-10.05 35.62-10.73 37.9-11.4 39.95-12.13 42-12.85 42.72-13.13 43.45-13.4 43.9-13.4L43.9-13.4Q45-13.4 45-11.7L45-11.7 45-11.4Q45-10.25 44.5-9.85L44.5-9.85Q44.05-9.55 43.35-9.35L43.35-9.35Q40.4-8.55 38.2-7.75 36-6.95 35.4-6.7L35.4-6.7Q33.9-6.2 33.15-6.2 32.4-6.2 32.4-7.25ZM69.95-34.45L69.95-34.45 71.1-34.85Q71.75-34.85 71.85-34.45L71.85-34.45Q72.9-28.4 72.9-27.33 72.9-26.25 72.2-26.25L72.2-26.25Q71.75-26.25 71.32-27.33 70.9-28.4 70.32-29.3 69.75-30.2 69.5-30.45 69.25-30.7 68.2-31.65L68.2-31.65Q65.5-34.05 62.02-34.05 58.55-34.05 56.45-32.55 54.35-31.05 54.35-28.65 54.35-26.25 55.57-24.8 56.8-23.35 58.85-22.55 60.9-21.75 63.15-21.05L63.15-21.05Q69.2-19.15 72.1-16.1L72.1-16.1Q74.1-13.95 74.1-10.75L74.1-10.75Q74.1-5.5 70.75-2.43 67.4 0.65 62.45 0.65L62.45 0.65Q59 0.65 56.9 0.28 54.8-0.1 52.6-1.25L52.6-1.25Q51.95-1.65 51.05-5.15 50.15-8.65 50.15-9.53 50.15-10.4 50.82-10.4 51.5-10.4 51.65-9.9L51.65-9.9Q53.5-5.45 56-3.6L56-3.6Q58.7-1.55 62.52-1.55 66.35-1.55 68.62-3.53 70.9-5.5 70.9-8.7L70.9-8.7Q70.9-11.05 69.35-12.63 67.8-14.2 65.8-14.9L65.8-14.9Q58.35-17.4 55.7-18.95L55.7-18.95Q51.15-21.65 51.15-26.2 51.15-30.75 54.37-33.43 57.6-36.1 62.75-36.1L62.75-36.1Q64.65-36.1 67.27-35.27 69.9-34.45 69.95-34.45ZM80.19-35.9Q80.84-35.9 84.27-35.7 87.69-35.5 97.74-35.5 107.79-35.5 109.89-35.8L109.89-35.8Q110.44-35.8 110.64-35.5 110.84-35.2 110.84-34.95L110.84-34.95 111.14-30.9Q111.14-29.65 110.99-29.33 110.84-29 110.34-29L110.34-29Q109.94-29 109.67-30.03 109.39-31.05 109.09-31.6L109.09-31.6Q108.34-32.9 104.74-32.9L104.74-32.9 98.24-32.9Q97.04-32.9 96.77-32.43 96.49-31.95 96.49-29.7L96.49-29.7 96.49-27.25 96.34-8.95 96.29-5.7Q96.29-3.55 96.97-2.9 97.64-2.25 98.44-1.93 99.24-1.6 99.79-1.55L99.79-1.55Q101.19-1.45 101.19-0.65L101.19-0.65Q101.19-0.1 100.94 0.05 100.69 0.2 99.99 0.2L99.99 0.2 94.44-0.2 89.34 0.15Q87.49 0.15 87.49-0.65L87.49-0.65Q87.49-1.15 87.79-1.33 88.09-1.5 88.97-1.63 89.84-1.75 90.09-1.8L90.09-1.8Q91.79-2.2 91.99-3.8L91.99-3.8Q92.49-8.2 92.49-22.7L92.49-22.7 92.44-31.65Q92.44-32.6 91.89-32.83 91.34-33.05 88.24-33.05 85.14-33.05 83.37-32.85 81.59-32.65 81.29-32.48 80.99-32.3 80.57-31.75 80.14-31.2 79.87-30.48 79.59-29.75 79.49-29.3L79.49-29.3Q79.34-28.15 78.54-28.15L78.54-28.15Q77.99-28.15 77.99-29L77.99-29Q77.99-31 78.24-32.63 78.49-34.25 78.52-34.5 78.54-34.75 78.57-34.83 78.59-34.9 78.62-35.08 78.64-35.25 78.69-35.33 78.74-35.4 78.82-35.52 78.89-35.65 78.99-35.7 79.09-35.75 79.24-35.8L79.24-35.8Q79.54-35.9 80.19-35.9ZM114.34-16.95L114.34-16.95Q114.34-25.35 119.39-30.73 124.44-36.1 133.69-36.1L133.69-36.1Q137.99-36.1 141.44-34.85 144.89-33.6 146.89-31.78 148.89-29.95 150.24-27.6L150.24-27.6Q152.59-23.5 152.59-19.6L152.59-19.6Q152.59-12.8 149.94-8.1L149.94-8.1Q144.89 0.8 132.99 0.8L132.99 0.8Q127.04 0.8 122.72-1.8 118.39-4.4 116.37-8.35 114.34-12.3 114.34-16.95ZM118.74-19.5L118.74-19.5Q118.74-15.05 121.09-10.4L121.09-10.4Q122.34-7.9 124.12-5.93 125.89-3.95 128.62-2.68 131.34-1.4 134.59-1.4L134.59-1.4Q138.29-1.4 141.89-3.55L141.89-3.55Q145.89-5.9 147.54-10.1L147.54-10.1Q148.49-12.35 148.49-15L148.49-15Q148.49-24.05 143.74-29.08 138.99-34.1 131.99-34.1L131.99-34.1Q126.49-34.1 122.62-30.4 118.74-26.7 118.74-19.5ZM160.64-5.65L160.69-21.4 160.64-29.85Q160.64-31.7 159.89-32.68 159.14-33.65 158.21-33.77 157.29-33.9 156.54-34.1 155.79-34.3 155.79-34.8L155.79-34.8Q155.79-35.6 157.24-35.6L157.24-35.6 165.54-35.6 170.54-35.75Q175.04-35.75 178.24-33.48 181.44-31.2 181.44-27.35L181.44-27.35Q181.44-24.8 180.46-22.88 179.49-20.95 178.31-20.1 177.14-19.25 176.16-18.63 175.19-18 175.19-17.8L175.19-17.8Q175.19-17.2 179.39-11.33 183.59-5.45 185.14-3.8L185.14-3.8Q187.04-1.45 189.74-1.45L189.74-1.45Q190.44-1.45 190.44-0.85L190.44-0.85Q190.44-0.1 189.84 0.15 189.24 0.4 186.81 0.4 184.39 0.4 182.44-0.75L182.44-0.75Q179.74-2.3 173.49-12.75L173.49-12.75Q171.09-16.65 169.79-16.65L169.79-16.65 165.69-16.65Q165.09-16.65 164.96-16.15 164.84-15.65 164.84-13.2L164.84-13.2Q164.84-13.2 164.84-9.15L164.84-9.15 164.89-6.5Q164.89-6.5 164.89-6.05L164.89-6.05Q164.89-4 165.84-2.88 166.79-1.75 167.96-1.58 169.14-1.4 170.09-1.18 171.04-0.95 171.04-0.45L171.04-0.45Q171.04 0.35 170.14 0.35L170.14 0.35Q170.14 0.35 162.99 0L162.99 0 157.49 0.2Q156.44 0.2 156.44-0.6L156.44-0.6Q156.44-1.45 158.54-1.7L158.54-1.7Q159.34-1.8 159.99-2.8 160.64-3.8 160.64-5.65L160.64-5.65ZM164.84-28.2L164.84-26.8Q164.84-21.65 164.89-20.43 164.94-19.2 165.24-19L165.24-19Q165.99-18.55 167.39-18.55L167.39-18.55 169.34-18.55Q173.59-18.55 175.41-20.5 177.24-22.45 177.24-25.53 177.24-28.6 174.81-31.15 172.39-33.7 167.49-33.7L167.49-33.7Q165.64-33.7 165.24-32.73 164.84-31.75 164.84-28.2L164.84-28.2ZM196.49-11.55L196.49-17.75 196.64-26.4Q196.64-27.75 196.54-30.95L196.54-30.95Q196.49-32.4 195.29-33.2 194.09-34 192.49-34.05L192.49-34.05Q191.69-34.05 191.69-34.95L191.69-34.95Q191.69-35.65 193.09-35.65L193.09-35.65 194.44-35.55 206.64-35.3 216.64-35.5Q217.59-35.5 217.59-34.35L217.59-34.35Q217.59-34.05 217.29-32.38 216.99-30.7 216.99-29.75L216.99-29.75Q216.99-28.15 216.21-28.15 215.44-28.15 215.44-29.35 215.44-30.55 214.59-31.65 213.74-32.75 212.49-32.8L212.49-32.8Q207.99-33.15 205.59-33.15L205.59-33.15 204.29-33.15Q201.69-33.15 201.29-32.8L201.29-32.8Q200.54-32.15 200.54-21.75L200.54-21.75Q200.54-19.25 201.49-19.2L201.49-19.2 206.39-19.2Q209.39-19.2 210.39-19.4L210.39-19.4Q212.99-19.9 213.34-22L213.34-22Q213.49-22.85 213.99-22.85 214.49-22.85 214.59-22.7 214.69-22.55 214.69-22.05L214.69-22.05 214.29-16.8 214.44-13.75Q214.44-12.5 214.09-12.5L214.09-12.5Q213.34-12.5 212.99-13.7L212.99-13.7Q212.29-15.8 211.74-16.15L211.74-16.15Q210.69-16.85 208.09-16.85L208.09-16.85 204.49-16.85 202.89-16.9 202.54-16.9Q200.49-16.9 200.49-15.95L200.49-15.95 200.39-8.75 200.39-6.75Q200.39-3.15 201.61-2.78 202.84-2.4 203.74-2.4L203.74-2.4Q211.24-2.4 214.59-3.6L214.59-3.6Q217.54-4.7 218.19-5.9L218.19-5.9Q218.79-7.15 219.29-7.15L219.29-7.15Q219.89-7.15 219.89-6.3L219.89-6.3Q219.89-4.15 217.74-1.95 215.59 0.25 213.99 0.25L213.99 0.25Q210.39 0.25 205.86 0 201.34-0.25 200.24-0.25L200.24-0.25 193.44 0.2Q192.39 0.2 192.39-0.3L192.39-0.3 192.39-0.9Q192.39-1.2 192.89-1.3L192.89-1.3Q193.44-1.35 194.59-1.9 195.74-2.45 196.11-4.2 196.49-5.95 196.49-11.55L196.49-11.55Z" opacity="1" transform="matrix(1,0,0,1,0,0)" fill="#ffffff" class="undefined-text-0" data-fill-palette-color="primary" id="text-0"></path></svg></g></svg></g><g transform="matrix(1,0,0,1,0,82.41271614567381)"><svg viewBox="0 0 232.209792 23.975298030196736" height="23.975298030196736" width="232.209792"><g transform="matrix(1,0,0,1,0,0)"><svg width="232.209792" viewBox="1.4200000762939453 -32.56999969482422 320.1399841308594 33.060001373291016" height="23.975298030196736" data-palette-color="#6936f5"><path d="M7.42-32.03L7.42-32.03Q9.62-32.03 15.04-32.23 20.46-32.42 23.19-32.42L23.19-32.42Q23.39-31.01 23.95-28.69 24.51-26.37 24.61-25.78L24.61-25.78Q24.37-25.54 23.73-25.54 23.1-25.54 23.05-25.88L23.05-25.88Q22.31-28.56 21-29.32 19.68-30.08 17.38-30.08L17.38-30.08 14.11-30.08Q9.91-30.08 9.81-29.44L9.81-29.44Q9.57-28.27 9.57-25.34L9.57-25.34 9.57-17.53Q9.57-17.24 11.67-17.24L11.67-17.24 14.26-17.24Q15.63-17.24 16.24-17.24 16.85-17.24 17.53-17.43 18.21-17.63 18.41-17.68 18.6-17.72 18.92-18.31 19.24-18.9 19.29-19.17 19.34-19.43 19.63-20.56L19.63-20.56Q19.68-20.9 20.36-20.9L20.36-20.9Q20.95-20.9 21.19-20.65L21.19-20.65 21.19-11.43Q21-11.23 20.41-11.23L20.41-11.23Q19.78-11.23 19.63-11.62L19.63-11.62Q19.29-12.94 19.04-13.6 18.8-14.26 18.68-14.38 18.55-14.5 18.26-14.7L18.26-14.7Q17.63-15.09 13.09-15.09L13.09-15.09Q9.57-15.09 9.57-14.65L9.57-14.65 9.57-7.08Q9.57-3.91 10.01-2.64L10.01-2.64Q10.16-2.15 13.33-2.15L13.33-2.15 15.67-2.15Q20.21-2.15 21.83-2.98L21.83-2.98Q22.56-3.37 23.46-4.71 24.37-6.05 24.9-7.91L24.9-7.91Q25-8.2 25.59-8.2L25.59-8.2Q26.51-8.2 26.81-7.91L26.81-7.91Q26.56-7.28 26.05-5.88 25.54-4.49 25.24-3.64 24.95-2.78 24.61-1.66 24.27-0.54 24.17 0.2L24.17 0.2Q21.68 0.2 16.31 0.1 10.94 0 7.52 0L7.52 0 1.61 0.15Q1.46 0 1.46-0.63 1.46-1.27 1.61-1.27L1.61-1.27Q2.25-1.27 3.49-1.61 4.74-1.95 4.98-2.39L4.98-2.39Q5.32-2.98 5.32-6.98L5.32-6.98 5.32-25.44Q5.32-28.32 4.98-29.64L4.98-29.64Q4.83-30.03 3.54-30.37 2.25-30.71 1.61-30.71L1.61-30.71Q1.42-30.71 1.42-31.3L1.42-31.3Q1.42-31.93 1.61-32.13L1.61-32.13Q4.15-32.03 7.42-32.03ZM30.71-10.25L30.71-10.25Q30.71-12.74 31.3-12.74L31.3-12.74 31.35-12.74 43.11-13.33 43.16-13.33Q43.45-13.33 43.45-12.89L43.45-12.89Q43.45-11.82 43.28-11.16 43.11-10.5 42.97-10.35L42.97-10.35 42.82-10.25 31.05-9.72Q31-9.72 30.95-9.72 30.91-9.72 30.81-9.86 30.71-10.01 30.71-10.25ZM76.9-9.08L77.14-8.94Q77.14-8.4 76.46-5.2 75.78-2 75.48-1.86L75.48-1.86Q71.92 0.29 63.81 0.29L63.81 0.29Q57.37 0.29 52.85-4.44 48.33-9.18 48.33-15.72L48.33-15.72Q48.33-22.66 52.97-27.61 57.61-32.57 64.35-32.57L64.35-32.57Q70.11-32.57 76.22-31.35L76.22-31.35Q76.12-24.8 76.12-24.32L76.12-24.32Q76.12-23.58 75.09-23.58L75.09-23.58Q74.6-23.58 74.46-23.83L74.46-23.83Q74.31-24.46 74.09-25.12 73.87-25.78 73.16-26.83 72.46-27.88 71.45-28.64 70.45-29.39 68.62-29.96 66.79-30.52 64.5-30.52L64.5-30.52Q59.71-30.52 56.34-26.29 52.97-22.07 52.97-16.75L52.97-16.75Q52.97-12.79 54.34-9.47 55.71-6.15 58.66-3.98 61.62-1.81 65.67-1.81L65.67-1.81Q70.5-1.81 73.14-4.64L73.14-4.64Q73.82-5.37 74.34-6.57 74.85-7.76 75.12-8.57 75.39-9.38 75.53-9.38L75.53-9.38Q75.83-9.38 76.24-9.28 76.66-9.18 76.9-9.08L76.9-9.08ZM95.21-30.52L95.21-30.52Q90.57-30.52 87.88-26.46 85.2-22.41 85.2-17.09L85.2-17.09Q85.2-13.18 86.47-9.72 87.74-6.25 90.42-3.93 93.11-1.61 96.72-1.61L96.72-1.61Q99.85-1.61 102.19-3.64 104.53-5.66 105.63-8.67 106.73-11.67 106.73-15.09L106.73-15.09Q106.73-18.99 105.46-22.44 104.19-25.88 101.51-28.2 98.82-30.52 95.21-30.52ZM84.93-4.35Q80.36-9.18 80.36-16.02 80.36-22.85 84.93-27.71 89.49-32.57 95.94-32.57 102.39-32.57 106.97-27.71 111.56-22.85 111.56-16.02 111.56-9.18 106.97-4.35 102.39 0.49 95.94 0.49 89.49 0.49 84.93-4.35ZM121.91-32.08L121.91-32.08Q123.72-32.08 126.41-32.32L126.41-32.32Q126.75-31.2 136.07-7.86L136.07-7.86Q136.12-7.76 136.27-7.76L136.27-7.76Q136.46-7.76 136.51-7.96L136.51-7.96Q141.3-19.19 144.13-26.46L144.13-26.46Q144.13-26.46 146.08-32.32L146.08-32.32Q149.21-32.13 150.14-32.13L150.14-32.13Q153.16-32.13 155.61-32.32L155.61-32.32Q155.75-31.88 155.75-31.59L155.75-31.59Q155.75-30.91 155.51-30.91L155.51-30.91 155.41-30.91Q154.87-30.91 153.99-30.59 153.12-30.27 152.68-29.93L152.68-29.93Q152.09-29.49 152.09-26.66L152.09-26.66Q152.09-25.88 152.53-6.84L152.53-6.84Q152.58-4.05 153.26-2.34L153.26-2.34Q153.46-1.9 154.73-1.59 156-1.27 156.53-1.27L156.53-1.27Q156.73-1.27 156.73-0.59L156.73-0.59Q156.73-0.15 156.63 0.15L156.63 0.15Q151.75-0.1 150.82-0.1L150.82-0.1Q150.58-0.1 144.96 0.15L144.96 0.15Q144.77-0.05 144.77-0.63L144.77-0.63Q144.77-1.27 144.96-1.27L144.96-1.27Q145.45-1.27 146.45-1.51 147.45-1.76 147.89-2L147.89-2Q148.48-2.34 148.48-4.1L148.48-4.1 148.48-6.69 147.89-23.88Q147.84-24.66 147.62-25.71 147.4-26.76 147.16-26.76L147.16-26.76Q147.06-26.76 146.91-26.42L146.91-26.42 136.71-2Q135.78 0.1 134.9 0.1L134.9 0.1Q134.76 0.1 134.46 0L134.46 0 123.28-28.42Q123.18-23.73 122.99-17.68 122.79-11.62 122.65-7.69 122.5-3.76 122.5-3.66L122.5-3.66Q122.5-2.78 122.79-2.39 123.09-2 124.57-1.64 126.06-1.27 126.55-1.27L126.55-1.27Q126.75-1.27 126.75-0.54L126.75-0.54Q126.75-0.15 126.65 0.15L126.65 0.15Q121.77-0.1 120.99-0.1L120.99-0.1Q120.89-0.1 115.27 0.15L115.27 0.15Q115.03-0.1 115.03-0.59L115.03-0.59Q115.03-1.27 115.27-1.27L115.27-1.27Q115.96-1.27 117.3-1.59 118.64-1.9 119.08-2.34L119.08-2.34Q119.86-3.22 119.96-6.59L119.96-6.59Q120.06-11.67 120.18-16.6 120.3-21.53 120.4-24.34 120.5-27.15 120.5-27.93L120.5-27.93Q120.5-29.15 120.3-29.88L120.3-29.88Q120.16-30.27 118.64-30.59 117.13-30.91 116.45-30.91L116.45-30.91Q116.25-30.91 116.25-31.59L116.25-31.59Q116.25-32.13 116.45-32.32L116.45-32.32Q117.28-32.28 118.28-32.23 119.28-32.18 120.11-32.13 120.94-32.08 121.91-32.08ZM166.34-32.08L166.34-32.08Q168.15-32.08 170.84-32.32L170.84-32.32Q171.18-31.2 180.51-7.86L180.51-7.86Q180.55-7.76 180.7-7.76L180.7-7.76Q180.9-7.76 180.94-7.96L180.94-7.96Q185.73-19.19 188.56-26.46L188.56-26.46Q188.56-26.46 190.51-32.32L190.51-32.32Q193.64-32.13 194.57-32.13L194.57-32.13Q197.59-32.13 200.04-32.32L200.04-32.32Q200.18-31.88 200.18-31.59L200.18-31.59Q200.18-30.91 199.94-30.91L199.94-30.91 199.84-30.91Q199.3-30.91 198.43-30.59 197.55-30.27 197.11-29.93L197.11-29.93Q196.52-29.49 196.52-26.66L196.52-26.66Q196.52-25.88 196.96-6.84L196.96-6.84Q197.01-4.05 197.69-2.34L197.69-2.34Q197.89-1.9 199.16-1.59 200.43-1.27 200.96-1.27L200.96-1.27Q201.16-1.27 201.16-0.59L201.16-0.59Q201.16-0.15 201.06 0.15L201.06 0.15Q196.18-0.1 195.25-0.1L195.25-0.1Q195.01-0.1 189.39 0.15L189.39 0.15Q189.2-0.05 189.2-0.63L189.2-0.63Q189.2-1.27 189.39-1.27L189.39-1.27Q189.88-1.27 190.88-1.51 191.88-1.76 192.32-2L192.32-2Q192.91-2.34 192.91-4.1L192.91-4.1 192.91-6.69 192.32-23.88Q192.27-24.66 192.05-25.71 191.83-26.76 191.59-26.76L191.59-26.76Q191.49-26.76 191.34-26.42L191.34-26.42 181.14-2Q180.21 0.1 179.33 0.1L179.33 0.1Q179.19 0.1 178.89 0L178.89 0 167.71-28.42Q167.61-23.73 167.42-17.68 167.22-11.62 167.08-7.69 166.93-3.76 166.93-3.66L166.93-3.66Q166.93-2.78 167.22-2.39 167.52-2 169.01-1.64 170.5-1.27 170.98-1.27L170.98-1.27Q171.18-1.27 171.18-0.54L171.18-0.54Q171.18-0.15 171.08 0.15L171.08 0.15Q166.2-0.1 165.42-0.1L165.42-0.1Q165.32-0.1 159.7 0.15L159.7 0.15Q159.46-0.1 159.46-0.59L159.46-0.59Q159.46-1.27 159.7-1.27L159.7-1.27Q160.39-1.27 161.73-1.59 163.07-1.9 163.51-2.34L163.51-2.34Q164.29-3.22 164.39-6.59L164.39-6.59Q164.49-11.67 164.61-16.6 164.73-21.53 164.83-24.34 164.93-27.15 164.93-27.93L164.93-27.93Q164.93-29.15 164.73-29.88L164.73-29.88Q164.59-30.27 163.07-30.59 161.56-30.91 160.88-30.91L160.88-30.91Q160.68-30.91 160.68-31.59L160.68-31.59Q160.68-32.13 160.88-32.32L160.88-32.32Q161.71-32.28 162.71-32.23 163.71-32.18 164.54-32.13 165.37-32.08 166.34-32.08ZM210.04-32.03L210.04-32.03Q212.24-32.03 217.66-32.23 223.08-32.42 225.82-32.42L225.82-32.42Q226.01-31.01 226.57-28.69 227.13-26.37 227.23-25.78L227.23-25.78Q226.99-25.54 226.35-25.54 225.72-25.54 225.67-25.88L225.67-25.88Q224.94-28.56 223.62-29.32 222.3-30.08 220-30.08L220-30.08 216.73-30.08Q212.53-30.08 212.44-29.44L212.44-29.44Q212.19-28.27 212.19-25.34L212.19-25.34 212.19-17.53Q212.19-17.24 214.29-17.24L214.29-17.24 216.88-17.24Q218.25-17.24 218.86-17.24 219.47-17.24 220.15-17.43 220.83-17.63 221.03-17.68 221.23-17.72 221.54-18.31 221.86-18.9 221.91-19.17 221.96-19.43 222.25-20.56L222.25-20.56Q222.3-20.9 222.98-20.9L222.98-20.9Q223.57-20.9 223.81-20.65L223.81-20.65 223.81-11.43Q223.62-11.23 223.03-11.23L223.03-11.23Q222.4-11.23 222.25-11.62L222.25-11.62Q221.91-12.94 221.66-13.6 221.42-14.26 221.3-14.38 221.18-14.5 220.88-14.7L220.88-14.7Q220.25-15.09 215.71-15.09L215.71-15.09Q212.19-15.09 212.19-14.65L212.19-14.65 212.19-7.08Q212.19-3.91 212.63-2.64L212.63-2.64Q212.78-2.15 215.95-2.15L215.95-2.15 218.3-2.15Q222.84-2.15 224.45-2.98L224.45-2.98Q225.18-3.37 226.08-4.71 226.99-6.05 227.52-7.91L227.52-7.91Q227.62-8.2 228.21-8.2L228.21-8.2Q229.14-8.2 229.43-7.91L229.43-7.91Q229.18-7.28 228.67-5.88 228.16-4.49 227.87-3.64 227.57-2.78 227.23-1.66 226.89-0.54 226.79 0.2L226.79 0.2Q224.3 0.2 218.93 0.1 213.56 0 210.14 0L210.14 0 204.23 0.15Q204.09 0 204.09-0.63 204.09-1.27 204.23-1.27L204.23-1.27Q204.87-1.27 206.11-1.61 207.36-1.95 207.6-2.39L207.6-2.39Q207.94-2.98 207.94-6.98L207.94-6.98 207.94-25.44Q207.94-28.32 207.6-29.64L207.6-29.64Q207.46-30.03 206.16-30.37 204.87-30.71 204.23-30.71L204.23-30.71Q204.04-30.71 204.04-31.3L204.04-31.3Q204.04-31.93 204.23-32.13L204.23-32.13Q206.77-32.03 210.04-32.03ZM244.51-30.08L244.51-30.08Q242.32-30.08 241.1-29.74L241.1-29.74Q240.9-29.69 240.78-29.37 240.66-29.05 240.58-27.91 240.51-26.76 240.51-24.37L240.51-24.37 240.51-18.46Q240.51-17.04 244.76-17.04L244.76-17.04 245.98-17.04Q247.69-17.04 249.52-18.75 251.35-20.46 251.35-23.29L251.35-23.29Q251.35-30.08 244.51-30.08ZM245.3-32.23L245.3-32.23Q246.96-32.23 248.66-31.74 250.37-31.25 252.03-30.27 253.69-29.3 254.77-27.49 255.84-25.68 255.84-23.29L255.84-23.29Q255.84-21.24 254.3-18.99 252.77-16.75 250.13-15.53L250.13-15.53Q249.64-15.33 249.84-15.04L249.84-15.04Q252.28-9.91 255.45-6.45L255.45-6.45Q260.14-1.32 263.07-1.32L263.07-1.32Q263.21-1.03 263.21-0.63L263.21-0.63Q263.21-0.2 263.07 0.1L263.07 0.1Q262.53 0.24 261.75 0.24L261.75 0.24Q254.91 0.24 249.88-6.79L249.88-6.79Q249.1-7.86 248.1-9.35 247.1-10.84 246.64-11.5 246.17-12.16 245.56-12.94 244.95-13.72 244.49-14.11 244.03-14.5 243.49-14.75L243.49-14.75Q242.95-14.94 241.68-14.94L241.68-14.94Q241.29-14.94 241.1-14.92 240.9-14.89 240.71-14.7 240.51-14.5 240.51-14.11L240.51-14.11 240.51-6.93Q240.51-3.66 240.9-2.69L240.9-2.69Q241.14-2.05 242.63-1.66 244.12-1.27 244.76-1.27L244.76-1.27Q244.95-1.27 244.95-0.59L244.95-0.59Q244.95-0.15 244.86 0.15L244.86 0.15Q239.97-0.1 238.51-0.1L238.51-0.1 232.55 0.15Q232.4 0 232.4-0.73L232.4-0.73Q232.4-1.37 232.55-1.37L232.55-1.37Q233.23-1.37 234.46-1.66 235.68-1.95 235.92-2.39L235.92-2.39Q236.26-2.98 236.26-6.98L236.26-6.98 236.26-25.44Q236.26-28.32 235.92-29.64L235.92-29.64Q235.77-30.03 234.48-30.37 233.19-30.71 232.55-30.71L232.55-30.71Q232.36-30.71 232.36-31.3L232.36-31.3Q232.36-31.93 232.55-32.13L232.55-32.13 238.41-32.03Q239.88-32.03 241.88-32.13 243.88-32.23 245.3-32.23ZM293.44-9.08L293.68-8.94Q293.68-8.4 293-5.2 292.31-2 292.02-1.86L292.02-1.86Q288.46 0.29 280.35 0.29L280.35 0.29Q273.91 0.29 269.39-4.44 264.87-9.18 264.87-15.72L264.87-15.72Q264.87-22.66 269.51-27.61 274.15-32.57 280.89-32.57L280.89-32.57Q286.65-32.57 292.75-31.35L292.75-31.35Q292.66-24.8 292.66-24.32L292.66-24.32Q292.66-23.58 291.63-23.58L291.63-23.58Q291.14-23.58 291-23.83L291-23.83Q290.85-24.46 290.63-25.12 290.41-25.78 289.7-26.83 288.99-27.88 287.99-28.64 286.99-29.39 285.16-29.96 283.33-30.52 281.03-30.52L281.03-30.52Q276.25-30.52 272.88-26.29 269.51-22.07 269.51-16.75L269.51-16.75Q269.51-12.79 270.88-9.47 272.25-6.15 275.2-3.98 278.15-1.81 282.21-1.81L282.21-1.81Q287.04-1.81 289.68-4.64L289.68-4.64Q290.36-5.37 290.87-6.57 291.39-7.76 291.65-8.57 291.92-9.38 292.07-9.38L292.07-9.38Q292.36-9.38 292.78-9.28 293.19-9.18 293.44-9.08L293.44-9.08ZM302.17-32.03L302.17-32.03Q304.37-32.03 309.79-32.23 315.21-32.42 317.95-32.42L317.95-32.42Q318.14-31.01 318.7-28.69 319.26-26.37 319.36-25.78L319.36-25.78Q319.12-25.54 318.48-25.54 317.85-25.54 317.8-25.88L317.8-25.88Q317.07-28.56 315.75-29.32 314.43-30.08 312.14-30.08L312.14-30.08 308.86-30.08Q304.67-30.08 304.57-29.44L304.57-29.44Q304.32-28.27 304.32-25.34L304.32-25.34 304.32-17.53Q304.32-17.24 306.42-17.24L306.42-17.24 309.01-17.24Q310.38-17.24 310.99-17.24 311.6-17.24 312.28-17.43 312.97-17.63 313.16-17.68 313.36-17.72 313.67-18.31 313.99-18.9 314.04-19.17 314.09-19.43 314.38-20.56L314.38-20.56Q314.43-20.9 315.11-20.9L315.11-20.9Q315.7-20.9 315.94-20.65L315.94-20.65 315.94-11.43Q315.75-11.23 315.16-11.23L315.16-11.23Q314.53-11.23 314.38-11.62L314.38-11.62Q314.04-12.94 313.8-13.6 313.55-14.26 313.43-14.38 313.31-14.5 313.01-14.7L313.01-14.7Q312.38-15.09 307.84-15.09L307.84-15.09Q304.32-15.09 304.32-14.65L304.32-14.65 304.32-7.08Q304.32-3.91 304.76-2.64L304.76-2.64Q304.91-2.15 308.08-2.15L308.08-2.15 310.43-2.15Q314.97-2.15 316.58-2.98L316.58-2.98Q317.31-3.37 318.21-4.71 319.12-6.05 319.66-7.91L319.66-7.91Q319.75-8.2 320.34-8.2L320.34-8.2Q321.27-8.2 321.56-7.91L321.56-7.91Q321.32-7.28 320.8-5.88 320.29-4.49 320-3.64 319.7-2.78 319.36-1.66 319.02-0.54 318.92 0.2L318.92 0.2Q316.43 0.2 311.06 0.1 305.69 0 302.27 0L302.27 0 296.36 0.15Q296.22 0 296.22-0.63 296.22-1.27 296.36-1.27L296.36-1.27Q297-1.27 298.24-1.61 299.49-1.95 299.73-2.39L299.73-2.39Q300.08-2.98 300.08-6.98L300.08-6.98 300.08-25.44Q300.08-28.32 299.73-29.64L299.73-29.64Q299.59-30.03 298.29-30.37 297-30.71 296.36-30.71L296.36-30.71Q296.17-30.71 296.17-31.3L296.17-31.3Q296.17-31.93 296.36-32.13L296.36-32.13Q298.9-32.03 302.17-32.03Z" opacity="1" transform="matrix(1,0,0,1,0,0)" fill="#ffffff" class="undefined-text-1" data-fill-palette-color="secondary" id="text-1"></path></svg></g></svg></g></svg></g></svg></g><g><svg viewBox="0 0 186.73504494664834 147.02823559105312" height="147.02823559105312" width="186.73504494664834"><g><svg xmlns="http://www.w3.org/2000/svg" xmlns:xlink="http://www.w3.org/1999/xlink" version="1.1" x="0" y="0" viewBox="6.499594688415527 7.9996442794799805 86.99972534179688 68.50035095214844" enable-background="new 0 0 100 100" xml:space="preserve" height="147.02823559105312" width="186.73504494664834" class="icon-icon-0" data-fill-palette-color="accent" id="icon-0"><path d="M93.051 35.923c-0.547-0.884-1.512-1.423-2.552-1.423H73.504L56.58 9.113c-0.765-1.149-2.319-1.459-3.467-0.693-1.148 0.766-1.459 2.318-0.693 3.467L67.495 34.5H32.504L47.58 11.887c0.766-1.149 0.456-2.701-0.693-3.467s-2.701-0.455-3.467 0.693L26.495 34.5H9.5c-1.04 0-2.005 0.539-2.552 1.423-0.547 0.884-0.597 1.989-0.131 2.919l18 36c0.508 1.017 1.547 1.658 2.683 1.658h45c1.137 0 2.175-0.642 2.684-1.658l18-36C93.647 37.912 93.598 36.808 93.051 35.923zM71.5 35.459c1.127 0 2.041 0.914 2.041 2.041s-0.914 2.042-2.041 2.042-2.042-0.915-2.042-2.042S70.373 35.459 71.5 35.459zM58.756 40.5h11.448L69.079 45H58.38L58.756 40.5zM58.13 48h10.198l-1.5 6H57.63L58.13 48zM42.37 54h-9.199l-1.5-6H41.87L42.37 54zM41.245 40.5L41.62 45H30.921l-1.125-4.5H41.245zM28.576 35.382c1.127 0 2.042 0.915 2.042 2.042 0 1.127-0.915 2.042-2.042 2.042-1.127 0-2.042-0.915-2.042-2.042C26.534 36.297 27.449 35.382 28.576 35.382zM14.354 40.5h12.351l1.125 4.5H16.604L14.354 40.5zM18.104 48h10.476l1.5 6h-8.975L18.104 48zM22.604 57h8.225l1.5 6h-6.725L22.604 57zM29.354 70.5l-2.25-4.5h5.975l1.125 4.5H29.354zM33.921 57h8.699l0.5 6h-7.699L33.921 57zM37.296 70.5L36.171 66h7.199l0.375 4.5H37.296zM53.243 70.5h-6.489L46.379 66h7.24L53.243 70.5zM53.869 63h-7.74l-0.5-6h8.74L53.869 63zM54.619 54h-9.24l-0.5-6h10.24L54.619 54zM55.369 45h-10.74l-0.375-4.5h11.49L55.369 45zM62.703 70.5h-6.448L56.63 66h7.198L62.703 70.5zM56.88 63l0.5-6h8.698l-1.5 6H56.88zM70.645 70.5h-4.85L66.92 66h5.975L70.645 70.5zM74.395 63h-6.724l1.5-6h8.224L74.395 63zM78.895 54h-8.974l1.5-6h10.474L78.895 54zM83.395 45H72.171l1.125-4.5h12.349L83.395 45z" fill="#ffffff" data-fill-palette-color="accent"></path></svg></g></svg></g></svg></g><defs></defs></svg><rect width="395.52" height="97.24599184125397" fill="none" stroke="none" visibility="hidden"></rect></g></svg></g></svg>